<?xml version="1.0" encoding="utf-8"?>
<svg version="1.1" id="Layer_1" xmlns="http://www.w3.org/2000/svg" xmlns:xlink="http://www.w3.org/1999/xlink" x="0px" y="0px"
	 viewBox="0 0 5400 5400" style="enable-background:new 0 0 5400 5400;" xml:space="preserve">
<g fill="white">
	<path d="M5373,2878.2c-7,5-6.7,12.7-7.2,20c-10.7,163.3-37.8,323.7-79.2,482c-34.6,132.3-80.2,260.5-134.2,386
		c-57.1,132.6-124.3,259.7-202.5,380.8c-73.3,113.5-154.6,221.2-244.4,322.3c-105.7,119.1-220.4,228.6-345.4,327.1
		c-179.2,141.1-372.4,258.5-581.4,350.8c-110.2,48.7-222.9,90.2-338.2,123.6c-115.2,33.4-232.6,59.9-352,74.9
		c-64.7,8.1-129.4,17.5-194.6,20.4c-5.9,0.3-11.8,1.4-15.5,6.8h-356.4c-7.6-9.8-18.9-6.9-28.8-7.7
		c-210.8-16.2-416.4-56.8-617.7-122.5c-211.3-68.9-410.6-162.1-598.4-280.6c-205.7-129.7-389.9-284.6-553.7-464.3
		c-98.2-107.7-187.5-222.3-266.4-344.4c-78.8-122.1-148.3-249.7-205.9-383.6c-47.5-110.5-89.3-222.9-121.7-338.6
		c-33.6-119.9-60.5-241.4-75.6-365.2c-8.3-67.7-17-135.3-19.4-203.5c-0.3-7.2-0.1-14.9-7.2-19.9v-276.2c9.2-8,6.7-19.1,7.3-29.1
		c9.1-169.2,35.2-335.6,77.7-499.8c35.6-137.9,82.6-271.7,138.2-402.8c56.3-132.9,125.5-258.6,202.7-380
		c62.8-98.8,133.5-192.3,209.3-281.7c79.7-94,166.1-181.6,257.3-264.2c90.1-81.7,186.9-155.2,287.4-223.8
		c114-77.8,234.2-145.2,359.3-203.7c97.9-45.8,198.3-85.7,301.4-119.5c101.6-33.3,204.4-60.9,309.1-81.7
		c114.8-22.9,230.8-38.6,347.9-45.4c11.3-0.7,24.2,3.4,33.2-7.7h285.1c7.6,9.9,18.9,7,28.8,7.5c121.6,6.4,242.3,21.7,361.3,46.8
		c145.1,30.6,287.3,71.2,426.2,124.5c172.5,66.2,336,149.2,490.9,249c132.3,85.2,255.9,182.1,371.4,289.5
		c118.8,110.4,227.3,230.1,323.8,360c93.9,126.3,176.2,260,247.1,400.9c48,95.6,89.8,193.8,126,294.1
		c46.8,129.7,83.6,262.7,108.8,398.5c18.6,100.6,33.3,201.9,38.8,304.1c0.4,7.3,0.1,14.9,7.3,19.9L5373,2878.2L5373,2878.2z
		 M5285.1,2701.6C5287.6,1280.6,4134,118.3,2704.9,116.5c-1431.2-1.7-2586.6,1157.2-2588.3,2582
		c-1.7,1427.6,1156.5,2583.6,2578.5,2587.2C4124.9,5289.2,5287.9,4125.4,5285.1,2701.6z"/>
	<path d="M4735.4,2041.2c25.9,70.9,36.6,142.9,60.8,214.3h360.5c49.2,295.7,59.5,588.3,7.4,884.5c-40.2,9-80.1,3.5-119.5,4.4
		c-40.1,0.9-80.2,0.2-120.3,0.2h-122.7c-19.6,72.2-38.5,141.8-58.6,216c101.8,61.1,206.4,118.6,307.9,179
		c-32.6,172.1-313.8,659.9-444.2,771.8c-102.4-58.6-205.2-117.5-310.2-177.6c-50.8,52.2-100.4,104.7-157.2,155.8
		c55.4,106.5,120.6,207.1,177.8,316.1c-230.2,194.6-485,341-769.4,442.4c-60.6-104.3-119.2-205.4-180.3-310.5
		c-71.4,18.7-142.2,37.3-214.8,56.4V5148c-8.9,14.8-19.4,16.5-29.6,18c-44.1,6.3-87.9,14.1-132.2,18c-155.4,14-311.3,17.3-467.1,8.2
		c-78.3-4.6-156.7-11.9-234.2-25.5c-10.3-1.8-20.5-3.5-32.3-14v-354.5c-72.4-19.5-142.1-38.3-214.5-57.8
		c-59.7,103.2-118.9,205.5-177.7,307.2c-148.8-19.9-662.8-316.2-771.3-445.5c58-101.3,116.6-203.8,176.7-308.8
		c-50.8-53.2-105.7-100.5-155.6-159.1c-104,59.4-207.7,118.6-315.2,180.1c-194.2-229.2-342.4-483.1-445-768.3
		c104.4-60.8,207.7-120.9,313.6-182.5c-24-70.7-39.6-142.7-59.7-216.9H253c-56.9-151.2-56-735.8,0.2-890.1h345.6
		c19.8-73.6,38.5-143.3,57.7-214.9c-103.4-60.2-205.4-119.7-306.3-178.4c34.1-175,312.9-657.3,446-770.2
		c101,57.7,203.5,116.3,309.6,176.9c51.7-52.4,102-106.3,158.4-156.2c-60.2-105.1-118.9-207.8-177.1-309.6
		c85.5-115.3,525.6-372.1,768-447.9c59.3,102.3,119.3,205.5,181.2,312.2c69.8-24.6,142.2-38.3,216.4-59.5V253.7
		c155.6-57.9,710.5-58.5,889.6-1.6v355.4c71.9,22.7,143.6,34.2,215,59.3c60.3-103.7,120.3-207,182.3-313.5
		c283.3,104.4,539.3,248.9,769.7,445.5c-60.5,105.9-119.1,208.5-180,315c54.4,48.8,106.2,99.2,156.7,156.8
		c103.7-59.2,206.1-117.8,307.7-175.8c107.1,64.8,390.7,544.6,451.1,763.9C4946.3,1921.4,4842.3,1977.3,4735.4,2041.2L4735.4,2041.2
		z M2433,759.4c-163.6,21.6-317,65.3-469.8,124.1C1902,781.4,1847,676.9,1783.4,574.2c-166.8,70.4-316.9,160.9-462.6,268.3
		c57.8,106.4,119.4,207.1,177.6,311.4c-63.7,52.2-123.8,104.6-180.5,161.1c-57.8,57.5-110.5,119.5-164,184
		c-104.4-59.5-205.3-120.9-311.8-177.7c-94.7,127.6-173.8,259.3-240.2,398.8c-9.9,20.9-24.5,40.7-22.8,68.4
		c101.1,58,202.4,116,303.5,174.1c-25.6,80.1-55.4,154.2-75.3,232c-20.1,78.5-33.9,158.4-51,239.5c-61.7,0-119.5-0.2-177.2,0.1
		c-59,0.2-118-1-178.3,0.5c-22.9,181.8-22.7,358.6,0.1,536.8c120,5.2,236.5-0.9,355.3,4.6c21.9,162.6,65.9,315.6,123.4,465.7
		c-104.4,62.2-209.2,116.8-309.4,180.2c71.8,166.9,161.4,317.9,269,462.8c104.7-59.8,207.2-118.3,310.7-177.3
		c103.2,130.7,218.4,243.1,344.6,345c-58.7,106.4-121.9,206.5-177.9,313c146.8,104.4,295.6,197.8,463.8,266.5
		c60-103.7,118.9-205.5,178.9-309.2c154.7,60.9,310.2,102.3,471.6,125.7c0,62.1,0,119.9,0,177.7s0,117.9,0,175.6
		c120,27.8,457.6,26.1,537.2-2.7v-352.7c163.2-20.5,317.9-64.6,470.7-124c60.3,104.8,118.4,205.9,178.2,309.9
		c166.9-70.2,319.1-160.2,465.3-267.9c-59.9-104.9-118.5-207.5-177.8-311.4c64.6-53.5,125.7-107.1,183.7-164.3
		c57.8-56.9,108.1-120.7,162.3-180.5c105.3,60.1,206.7,117.9,309.9,176.7c110.3-146.1,197.7-299.5,268.8-465.9
		c-105.4-60.7-207.6-119.7-310.2-178.7c61.2-154.1,102.2-309.7,126-470.2c122-5,240.1,3.8,359.9-2.6
		c19.1-180.3,19.7-355.6-0.8-534.2c-63.3,0-122.4,0.4-181.6-0.1c-58.8-0.5-117.7,2.3-178.2-1.9c-21.3-163.2-65.6-316.3-123.7-468.1
		c103.9-59.8,206.2-118.7,310-178.5c-70.8-168-159.3-321-268.2-465.5c-105.7,60.3-208.2,118.7-311.1,177.4
		c-103.7-129.5-216.9-243.8-345.2-343.5c59.3-103.8,117.3-205.2,178.2-311.7c-144.3-107.6-296.3-196.9-464.4-267.3
		c-60.5,104.8-119.4,206.9-179,310.1c-153.7-61.6-309.5-102-472.5-126.4V400.5c-180.6-21.8-356.9-23.4-535.8,1.1L2433,759.4
		L2433,759.4z"/>
	<path d="M3672.2,1890.3c-26.6,20.6-51.3,34.7-69.9,56.4c-38.5,44.8-55.4,97.2-55.4,155.6c-0.1,185.4,0,370.9,0,556.4
		c0,43.1,0.1,86,0,129.1c-0.1,13.2,1.7,26.5-4.1,41.4c-89.6,24.5-175.9,58.5-255.7,110.6c-11.6-12.4-6.9-26.2-6.9-38.3
		c-0.5-152.9-0.3-305.6-0.5-458.5c-0.1-41.5-2.7-44.6-44-59.9c-42.3,14.7-45.4,18.3-45.5,63.3c-0.2,173.5,0,347.2,0,520.7
		c0,16.2,0,32.4,0,48c-69.1,64.4-128.4,133.7-172.1,220.6c-7.9-15.4-5.7-26.9-5.7-37.8c-0.1-313-3.1-626.1,1.1-939.1
		c2.4-175.9,85.3-308.4,245.6-386.9C3397.6,1804,3533.8,1814.7,3672.2,1890.3L3672.2,1890.3z"/>
	<path d="M2210.8,3011.9c0-13.5,0-28.2,0-43c0-170.7-0.1-341.4-0.1-512c0-7.4,0.3-14.9,0.1-22.3c-1.5-41.7-25.2-58.4-64.6-45.2
		c-4.1,1.4-7.5,4.7-10.3,6.3c-16.6,17.9-14.8,39.1-14.8,59.8c0,145.4,0.1,291-0.2,436.4c0,14.6,3.4,29.5-4.5,47.2
		c-80.1-49.8-165.2-86.1-255.4-108.8c-10.8-15.7-5.9-32.6-5.9-48.3c-0.3-227.1-0.6-454.2,0-681.3c0.2-60.8-18.4-114.1-59.5-158.3
		c-17.9-19.2-41-33.7-63.7-51.8c82.7-50.2,172.4-70.9,267.5-61.1c107,11.1,199,56.4,273,135.4c75.1,80.2,115,175.8,116.1,285.6
		c1.6,152.9,0.4,305.7,0.5,458.7c0,158.8,0,317.6,0,476.5c0,14.7,0,29.3,0,44C2338.6,3149.2,2280.3,3077.5,2210.8,3011.9
		L2210.8,3011.9z"/>
	<path d="M1775.1,3080.9c3.3,26,20.5,40.8,42.5,52.6c96,51.3,173.5,123.3,235,212.8c51.9,75.7,84.8,159.3,102.3,249.1
		c0.5,2.5-1.3,5.4-2.6,10.3c-53.2,6.9-107.2,14-155.7,30.3c-12.1-4-14-11-16.6-18.1c-79.4-208.4-220.5-354.5-431.8-431.3
		c-80.6-29.3-163-43.4-248.4-42c-47.3,0.8-94.6,0.1-143.6,0.1c127.3-176.1,443.9-309.5,753.1-205.3
		c310.2,104.5,492,413.2,476.2,667.3c-43.7,5.1-87.7,1.5-131,2.3c-13.4-14.4-12.5-31.7-16.1-47.1
		c-35.6-149.4-105.1-279.7-216.1-386.8c-48.2-46.5-102.2-85.6-160.1-119.4c-5.1-3-10.5-5.5-16-7.8
		C1808.7,3032.3,1792.5,3039.9,1775.1,3080.9L1775.1,3080.9z"/>
	<path d="M3415.1,3636c-53.6-11.7-105.8-27.2-164-29c4.4-48.7,17.4-91.1,34.2-131.6c60.9-147.5,159.5-262.4,300-340
		c7.8-4.3,15.8-8.4,22.8-13.9c30.3-23.7,28.5-56-4.4-75.7c-4.9-3-11-4.2-16.7-6.3c-52.2,9.1-91.6,42.5-131.6,72.1
		c-118.7,87.6-204.9,201.1-256.9,339.4c-14.6,38.7-23.5,79.5-34.7,119.4c-3.2,11.3-5.6,22.9-8.9,36.3h-137
		c-12.8-224.8,125.9-511.7,409-640.7c288.1-131.4,623.2-56.2,821,171.4c-6.5,12-17.9,6.7-27.1,6.8c-44.6,0.5-89.1-0.8-133.6,0.5
		c-241.6,6.9-432.6,108.8-574.6,304.6C3470.9,3506.3,3444.4,3570.2,3415.1,3636L3415.1,3636z"/>
	<path d="M2483,3608.7c-7.1-20.9-4.5-37.3-4.5-53.4c-0.1-488.4-0.5-976.8,0.3-1465.2c0.2-106.1-19.7-205.8-74.6-298
		c-51.5-86.3-120.2-153.5-209.2-200.1c-16.9-8.9-34.1-17.5-58.1-30c50.9-1.9,92,7.6,132.5,19.8c120.6,36.1,218.9,104.1,291.2,208
		c58.1,83.6,89.6,176.5,95.3,278.2c0.9,14.8,0.5,29.7,0.5,44.5c0,479.5,0,959,0,1438.5v56.5C2596.8,3610,2541,3608.4,2483,3608.7
		L2483,3608.7z"/>
	<path d="M3263.2,1562.9c-53.6,27.8-99.5,51.5-140.1,84.4c-104.6,85-167.2,194-191.7,326c-7.6,41.1-8.7,82.4-8.7,123.9
		c0.2,483.7,0.1,967.4,0.1,1451.1c0,17.7,0,35.5,0,54.7c-29.7,10.8-59.3,4.4-88.2,5.5c-27.9,1.1-55.9,0.2-81.3,0.2
		c-12.2-13-8.2-25.4-8.2-36.8c-0.2-494.1-1.7-988.2,0.6-1482.2c0.8-170.1,73.6-310.4,206-416.1c83.9-66.9,182.9-102.6,290.2-112.9
		C3246.2,1560.4,3250.6,1561.6,3263.2,1562.9L3263.2,1562.9z"/>
	<path d="M2928.6,4229.3c-5.9-34.4-7-209-0.9-261.4c73-2,146.6-0.3,220.4-0.4c72.4-0.2,144.6,0,216.9,0c7.1-20,1.7-33.2-7.7-45
		c-12.9-16.3-26.1-32.6-48-37.6c-20.4-4.8-40.9-6.5-61.8-6.4c-90.6,0.3-181.2,0.3-271.7,0.1c-14.8,0-29.7,2.4-44-2.8
		c-8.7-30-10.4-116.5-3.4-171.1c8.5-8.4,19.5-4.9,29.4-5c93.6-0.3,187.1-2.1,280.6,0.2c221.9,5.3,405,159.9,439.5,385.2
		c7.1,46.7,4,94.5,1.6,140.5c-2.6,2.5-3.6,3.6-4.7,4.5c-1.1,0.9-2.4,2-3.7,2.1c-7.3,0.7-14.8,1.7-22.1,1.7
		c-237.5-0.2-475.1-0.5-712.6-0.9C2933.7,4232.7,2931.2,4230.4,2928.6,4229.3L2928.6,4229.3z"/>
	<path d="M2474.6,3702.8v169.9c-15.9,9.5-31.1,5.5-45.4,5.6c-92,0.4-183.9,0.5-275.9,0.1c-25.4-0.1-50.2,2.7-73.7,10.1
		c-38.9,31.7-40.1,33.6-47.2,71.9c13.8,12.6,31,7.2,46.5,7.2c117.2,0.3,234.3-0.4,351.5-0.3c14.4,0,29.6-4,45.2,5.6v254.7
		c-38.9,8-712.2,8.3-750.7,0.7c-28.3-199.1,58.5-374.6,219.9-468.5c63.5-36.8,133.4-58.7,207.3-60c102.4-1.8,204.7-0.5,307-0.3
		C2463.3,3699.5,2467.5,3701.2,2474.6,3702.8L2474.6,3702.8z"/>
	<path d="M4395.6,3407.2c-21.1,7.7-35.9,5.3-50.6,5.3c-86,0.3-172.2-0.8-258.2,0.7c-62.6,1.1-122.6,12.7-180.3,41
		c-130,63.8-209,166.5-244.7,304.9c-3,11.5-5.3,23.2-8.4,34.6c-0.7,2.5-3,4.6-6,8.8c-41.6-49-88.2-91.7-144.9-122.1
		c18-79,54.9-144.6,101.6-204.3c109.7-140.3,255.6-217.4,431.3-239.6c23.5-3,47.4-1.9,71.2-2c71.1-0.2,142.2-0.1,214-0.1
		C4354.2,3289.4,4383,3343.6,4395.6,3407.2L4395.6,3407.2z"/>
	<path d="M1004.3,3405.5c13.2-61.5,42.8-115.3,72.9-166.3c16-6.6,29.6-4.4,42.8-4.5c63.8-0.3,127.6-0.7,191.4-0.1
		c261.9,2.4,499.9,171.2,583.8,423.3c1.8,5.4,2.2,11.4,3.8,20.1c-52.4,35.4-102.9,73.8-145.9,128.2c-9.5-34.1-15.9-63.4-25.7-91.5
		c-50.9-146.2-152.3-241-299.3-286.6c-39.6-12.3-81.3-15.5-123-15.5c-84.5,0.1-169.2,0.2-253.7-0.1
		C1036.9,3412.6,1021.8,3415.6,1004.3,3405.5L1004.3,3405.5z"/>
	<path d="M2891.5,1177.2c-42.8,16.9-81,12.2-115.3-10.9c-51.6,13.4-94,10.4-127.4-8.7c-24.5-2.1-44,14.4-66.2,21.4
		c-23.4,7.4-46.2,9.6-66.5,6.1c-44.6-15.2-51.2-59.2-74.6-86.5c-46.4-7.2-61.2-2.7-94.2,29.5c25.2,23.4,65.8,6.1,88.4,34.1
		c16.7,18.1,11.4,38.7,2.6,57.7c-36.5,79.5-99.1,124.9-185.9,132.9c-68.8,6.3-112.7-36.1-113.8-105.7c-0.4-25.2,0.6-50.5,2.1-75.6
		c0.8-14.3,1.8-29.3,17.2-41.6c14,16.7,7.7,34.7,7.4,51.1c-0.9,50.9-0.9,52.5,21.7,87.9c76.2,21.4,146.8,2.3,183-49.9
		c-7.5-12.6-21.1-7.2-31.7-10.5c-39-12-55.5-45.8-40.3-83.7c7.3-18.3,18-34.1,34.8-45c22.4-14.6,44.4-29.9,67.5-43.1
		c32.1-18.4,55-13.9,78.4,14.3c8.4,10.2,15,22.1,22.3,33.3c15.5,23.9,37.9,34.1,65,27.2c16.5-4.2,35.7-2.8,49.1-15.8
		c-1.5-29.6-34.9-20.2-45.3-41.5c5-27.7,27.8-38,52.2-45c37.4-10.8,69.9-2.3,102.7,24.4c12.2,23.9-10.4,38.2-16.1,58.6
		c12.5,21.3,32.9,12.7,46.2,13.5c19.6-3.5,28.2-19.4,47.9-19.6c19.7,7.4,32.8,37.2,60.3,30c21-2.3,29.4-23.1,48-25.4
		c16.4,5.8,21,25,34.7,31.7c18.4,6.5,29.6-4,40.6-14c22.3-20.1,47.3-36.1,74.8-47.3c45.9-18.6,89.9-16.9,128,19.6
		c22.3,21.4,31.9,46.1,20.9,76.4c-4.6,12.5-9.3,24.9-14.6,37.1c-12.2,28.1-35.1,40.1-64.4,37.6c-34-2.9-68-6.9-101.4-13.4
		C2983,1209.5,2934.7,1206.7,2891.5,1177.2L2891.5,1177.2z M3006,1136.8c68.2,21.3,123.8,26.6,152.6,15.5
		C3130.6,1105.9,3100.6,1102.4,3006,1136.8z"/>
	<path d="M1592.1,2186.1c104.5,2.2,164.5,80.7,171.6,162c1.2,13.3,0.9,26.6,0.9,40c0,126,0,252.1-0.1,378.1c0,14.6,0,29.1,0,46.3
		h-170.9C1586.1,2782.5,1584.3,2239.6,1592.1,2186.1L1592.1,2186.1z"/>
	<path d="M3808.2,2814.2h-163.5c-11.3-10.6-7.4-23.2-7.4-34.6c-0.3-134.9-0.8-269.9-0.2-404.8c0.2-48.3,11.8-92.6,45.4-130.9
		c33.8-38.4,75.7-54.1,122.7-60.1c2.9,3.2,4,4.3,4.9,5.3c0.9,1.1,2.4,2.4,2.4,3.6c0.6,197.1,1.2,394.3,1.6,591.4
		C3813.9,2793,3815.6,2802.1,3808.2,2814.2L3808.2,2814.2z"/>
	<path d="M2701.6,1859.6c-82.1-184.1-215-302.2-404-365.7c81-33.4,155.8-28.5,229.6-1.6c72.7,26.5,130.1,74.2,172.1,143.4
		c102.8-138,230.8-195.1,397.7-143.5c-85.8,35-166.7,77.1-235.6,140.4C2793,1695.2,2740.7,1768.7,2701.6,1859.6L2701.6,1859.6z"/>
	<path d="M3800.3,1633.5c-18.3-10.6-34.9-20.1-51.9-29.9c-4.2-11.6-8-22.6-12-33.4c-10.3-12.9-28.8-7.7-43.8-23.4
		c-3.8-6.2-10.5-17.6-18.3-30.9c-43-29.1-100.1-47.6-105.1-117.3c-59.3,24.8-100.3-8.9-143.6-34c-11.1-45.1-6.4-84.9,15.1-123
		c30.7-54.2,64.5-106.4,88.2-164.3c12.3-30.1,38.8-41.9,66.3-48.4c17.3,13.4,7.3,24.5,2,33.7c-18.4,32.2-37.9,63.7-57.2,95.4
		c-17.7,29.1-35.8,58-53.3,87.3c-10.8,18.1-19.8,36.9-8.4,62.8c23.1,24.8,57,38.4,91.1,56.5c19.9-30,2.6-54.3-3.9-77.9
		c-6.9-25.4-18.4-49.6-27.5-73.2c9.5-23.8,27.2-28.2,47.8-26.5c29.5,2.4,59,4.9,88.5,8.1c55.9,6.1,111.9,12.7,167.8,19.1
		c8.9,1,17.7,2.6,23,14.1c-22.4,25.5-51.7,29.3-83.7,25.7c-42.7-4.8-85.4-9.2-128.2-13.5c-7.1-0.7-14.8-2.6-24.1,5.6
		c7.1,45.6,4.9,94.1,7.5,142.3c1.8,34.5,29.6,49.6,56.8,62.4c13.2,6.1,28.1,8.6,40.5,12.3c11.1,12,3.2,28.5,14.6,38.3
		c13.6,12.5,32.3,0.6,46.6,9.7c15.7,12.2-4.2,33.2,9.7,42.9c13.8,21.8,37.2,13.9,49.1,21.1c16.2,10.9,10,25,16.6,38
		c16.9,20.5,37.2,41.5,65.3,55.9c22.5-21,4.9-47.4,18-76.1c8.9-13.3,28-25,49.3-30.5c16.8,8.9,14.3,21.5,12.2,33
		c-6.6,35.5-19.6,68.4-44.1,95.8c-13.8,15.4-27.8,30.6-38.2,42c-42.3,11.3-60.3-17.2-82.1-35.2
		C3829.4,1679.9,3809.6,1659.6,3800.3,1633.5L3800.3,1633.5z"/>
	<path d="M2701.7,4533.4c-27.9-123.3-99.3-185.8-219-200.1c73.7-89.7,143.6-175,217.2-264.7c74.8,86.7,145.6,172.6,219.2,264
		C2800.3,4348.4,2727.7,4409,2701.7,4533.4L2701.7,4533.4z"/>
	<path d="M1272.4,1932.1c20.9-9,37.9-20.8,52.3-36c60-63.9,108.2-136.4,157.1-206.4c-31.9-63.7-47.1-110-45.6-138.9
		c11.7-15.6,27.9-27,48.9-34.4c38.7,5.8,44.7,48.1,73.8,68.2c34.9-21,55.2-53.8,75.6-87.1c-21.3-19.7-44.4-5.2-66.2-16.3
		c-12.7-12.3-20.6-30.4-24.3-50.6c54.1-29.7,124.9,11.3,148.5,86.3c-18.1,56.6-47.4,108.7-97.9,146.6
		c-24.3,18.2-42.5,39.2-55.1,67.6c-13.8,30.9-32.5,59.7-53.4,86.8c-32.5,42.3-60.7,87.6-95.2,128.4c-20.9,24.7-47.1,40.2-77,50.2
		c-53.5,18-92.2-2.4-113.7-61.1C1223.4,1928.9,1247.3,1940.1,1272.4,1932.1L1272.4,1932.1z M1529.7,1609.6
		c-9.4-16.5-20.7-19.4-34.3-14.1c-6.8,5.5-9.4,12-7.8,19.9C1501.6,1624.5,1515.6,1622.5,1529.7,1609.6z"/>
	<path d="M2701.2,3976.2c-60.2,4.5-131.8-44.4-133-131.7c-1-70.4,59-130,130.5-131c74.2-1.1,134,57,134.4,130.5
		C2833.6,3919.5,2777.2,3975.9,2701.2,3976.2L2701.2,3976.2z"/>
	<path d="M2066.5,1322.2c-20.9,10.5-45.6,16.2-74.2,17.4c-14.5,36.9-45.5,54.4-84.9,62.3c-17.7,25.1-43.3,43-69.4,62.4
		c10.2,42.6,18.3,84.4,15.7,127.7c-3.5,59.6-65.7,107.6-127.7,97.4c-3.3-14.3,8.5-20.8,15.6-29.4c24.8-29.9,46-61.6,59.6-98.3
		c9-24.5,12.9-48.5,5.7-73.7c-20.3-29.5-57.4-10.5-83.3-30.3c-3.5-18-10.7-37.2-7-61.4c66.5,3.8,124.7-8.7,150.6-82
		c18.5-7.3,40.1,0.4,59.8-7c22.6-8.6,25.6-30.6,34.5-49.7c22.2-2.7,43.6,17.8,67.4-1.5c-13.4-22.5-24.8-47.3-7-73.8
		C2089,1203.6,2105.9,1258.3,2066.5,1322.2L2066.5,1322.2z"/>
	<path d="M2831.5,1459.1c-49.9,25.2-94.8,55.2-130.4,101.5c-36.9-46.7-82.9-75.8-129.7-100.9c2.6-76.9,53.4-127.3,123.8-131.8
		C2761.4,1323.8,2834.7,1381,2831.5,1459.1L2831.5,1459.1z"/>
	<path d="M4100.2,2003.5c-51.4-22.4-91.2-54.5-109.3-106.1c9.8-27.5,27.5-38.5,51.2-43.6c20.6,11.2,30,32.9,46.6,47.2
		c16.2,14.1,25.5,36.5,53.1,43.3c20.7-49.3-6.3-92.6-14.4-139.2c20.1-13.3,41.2-25.4,65.7-28.9c15.7,13.2,16.7,30,18.5,45.7
		c2.2,19.1,1.4,38.5,3,57.7c4.3,51.4-22.6,83.9-64.6,106.9C4135.8,1994.4,4120.7,2000.4,4100.2,2003.5L4100.2,2003.5z"/>
	<path d="M3327,1110.3c13.9,2.1,25.9,7.7,36.6,15.5c19.2,14.1,29.7,32.2,24.8,57.2c-5,24.8-11.9,48.8-24.4,70.9
		c-34.1,60.4-90.5,61-126.1,13.8c-8.7-29.1-2.7-55,18-80.5C3278.1,1159.9,3294.7,1127.9,3327,1110.3L3327,1110.3z M3319,1234.8
		c21.3-24.2,16.7-35.3-21.4-48.1C3289.2,1210.2,3298.4,1224.8,3319,1234.8z"/>
	<path d="M4169.3,1634.4c-2.9,19.6-13.4,30-23.1,41c-39,44.2-78.2,88.2-116.8,132.8c-13,14.9-27.5,26.2-47,31.2
		c-10.1,2.6-16.4-3-26.1-7.4c16.5-32.5,39.9-56.7,62.3-81.6c30.6-33.9,62.2-66.9,93.2-100.5
		C4126.8,1633.5,4143.9,1625.3,4169.3,1634.4L4169.3,1634.4z"/>
	<path d="M2439.7,971c-15.1-2.7-25.8-13.7-33.5-28c0.6-18.1,12.1-26.4,24-32.6c17.2-4.5,24.6,11.1,38.1,14.5
		c12.5-5.9,16.7-23.9,37.8-25.9c13.3,0.7,24.3,11.4,32.5,26.3c0.8,19.9-12,28.6-23.4,34.5c-19.1,3.5-25-14.6-38.3-15.1
		C2462.9,950.7,2458.4,968.6,2439.7,971L2439.7,971z"/>
	<path d="M1627.9,1796.5c2.4,13.3,5.6,26.2,0.2,40.7c-14.7,12.1-31.8,7.7-48.5,5.4c-13-12.6-12.6-26.3-7.9-39.5
		c9.7-14.2,25.6-7.7,37.6-15.1c7.8-12.8-3.3-28.5,5.8-44c13.3-13.1,30.5-6.1,46.1-6.1c11.6,17,14.6,31.6,4.1,45.2
		C1654.2,1794.9,1637.5,1785.4,1627.9,1796.5L1627.9,1796.5z"/>
	<path d="M1865,1197.2c-7.9,11.2-7.8,27.7-20.8,37.9c-18.3,5.8-33.2-2.1-47.1-13.5c-3-16.6,3.9-28.8,11.2-37.8
		c15.1-8.8,25.5,3.4,38.8,0.6c12.5-8.9,7.2-30.6,23.7-38.6c17.4-7.4,29.7,4.4,42.3,9.6c7.6,20.9-0.6,33.9-11.7,43.8
		C1887.6,1207,1877.9,1191.9,1865,1197.2L1865,1197.2z"/>
	<path d="M3867.6,1407.7c-12.8,2-25.6,3.9-38.4,5.8c-9.2-10.4-15.3-24.2-18.4-41.2c11.6-19.8,30.3-17.3,48.2-17.1
		c12.6,18.3,21.5,34.5,7.6,53.6L3867.6,1407.7L3867.6,1407.7z"/>
	<path d="M2860.5,932.1c-2.5,20.5-13.2,30.9-29.1,37.4c-17.9-2.4-27.9-15-39.1-24.9c0.2-19.2,10.1-28.5,24.8-35.6
		C2835.4,910,2849.3,918.8,2860.5,932.1L2860.5,932.1z"/>
	<path d="M3866.6,1408.7c15.4-4.2,30.3-12.3,46.9-7c13.3,10.5,16.2,24,14.2,39.3c-12.1,14.8-28.9,14.2-44.4,17.6
		c-21.9-12.4-17.3-32.1-15.7-51L3866.6,1408.7L3866.6,1408.7z"/>
	<path d="M1853,1122.6c4,19-4.9,30.3-15.8,41.3c-14.9-0.2-28.1-5.7-40.7-14.1c-8.7-17.8,0.4-30.5,11.4-43.3
		C1827.4,1102.4,1841.7,1110.4,1853,1122.6L1853,1122.6z"/>
	<path d="M4029.5,1542.8c-11.6-13.5-14.7-24.3-14.3-37.1c10.9-18.6,29-20.3,46.2-21.4c13.5,10.7,12.9,24.6,16.9,37
		C4067.3,1541.1,4049.2,1542.4,4029.5,1542.8z"/>
	<path d="M3879.2,1342.5c16.1-8.7,33.3-12.7,51.3-12c10.7,11.8,10.9,25.6,7.5,40.1c-12.8,15-29.1,10.5-43.4,11.6
		C3883.5,1370.7,3880.5,1358.4,3879.2,1342.5L3879.2,1342.5z"/>
	<path d="M3812.7,1170.6c-33.3,17.3-51.5,17.1-135.4,0.6c2.1-8.5,8.8-11.5,16.2-13C3713.7,1154.3,3774.6,1160.4,3812.7,1170.6
		L3812.7,1170.6z"/>
	<path d="M1324.1,1701.3c6.5,13.7,8.6,26.2,1.1,40.8c-14.1,8.1-29.4,6.6-44.2,2.8c-10.5-13.5-8.4-26.2-4.7-41.3
		C1291.7,1692.8,1307.8,1692,1324.1,1701.3L1324.1,1701.3z"/>
</g>
</svg>
